<svg xmlns="http://www.w3.org/2000/svg" viewBox="0 0 500 500"><g id="freepik--background-simple--inject-42"><path d="M489.12,217.2c-.57-42.6-16.16-83.73-39.89-115.48a214.43,214.43,0,0,0-48.84-47.51C381.46,41.06,360.88,26.33,338,24.07a41.92,41.92,0,0,0-17,1.49c-21.3,6.82,20.85,31.13,26.36,34.69-58.91-27.07-119.9-54.57-184.3-52-12.42.5-25.3,2.3-36.22,9.7S107.52,39.65,109.15,53.8c1.34,11.7,8.7,24.77,1.8,33.92-2,2.61-4.77,4.16-7.52,5.5-14.08,6.88-29.29,10.5-42.64,19.26C40.12,126,26,151,19.48,177.19S13.26,231,15.82,257.65c4.83,50.2,18,100,44.54,139.06,38,55.77,100.2,84.17,162.54,88.86,75.43,5.66,157.22-24,207.1-92.68,7.4-10.19,14.18-21.47,16.87-34.24s.56-27.33-7.72-35.72c-2.23-2.26-5.1-4.66-4.86-8.17.33-4.74,5.64-6.35,9.68-7.34,26.56-6.54,41.74-41.14,44.48-72.25A177.37,177.37,0,0,0,489.12,217.2Z" style="fill:#92E3A9"></path><path d="M489.12,217.2c-.57-42.6-16.16-83.73-39.89-115.48a214.43,214.43,0,0,0-48.84-47.51C381.46,41.06,360.88,26.33,338,24.07a41.92,41.92,0,0,0-17,1.49c-21.3,6.82,20.85,31.13,26.36,34.69-58.91-27.07-119.9-54.57-184.3-52-12.42.5-25.3,2.3-36.22,9.7S107.52,39.65,109.15,53.8c1.34,11.7,8.7,24.77,1.8,33.92-2,2.61-4.77,4.16-7.52,5.5-14.08,6.88-29.29,10.5-42.64,19.26C40.12,126,26,151,19.48,177.19S13.26,231,15.82,257.65c4.83,50.2,18,100,44.54,139.06,38,55.77,100.2,84.17,162.54,88.86,75.43,5.66,157.22-24,207.1-92.68,7.4-10.19,14.18-21.47,16.87-34.24s.56-27.33-7.72-35.72c-2.23-2.26-5.1-4.66-4.86-8.17.33-4.74,5.64-6.35,9.68-7.34,26.56-6.54,41.74-41.14,44.48-72.25A177.37,177.37,0,0,0,489.12,217.2Z" style="fill:#fff;opacity:0.7000000000000001"></path></g><g id="freepik--Symbol--inject-42"><g style="opacity:0.30000000000000004"><circle cx="368.88" cy="133.55" r="105.75" style="fill:none;stroke:#263238;stroke-miterlimit:10"></circle><circle cx="368.88" cy="133.55" r="94.01" transform="translate(13.61 299.95) rotate(-45)" style="fill:none;stroke:#263238;stroke-miterlimit:10"></circle><path d="M336.48,201.07l-.11,0c-22.52-10.39-39.25-33-42.62-57.74a76.58,76.58,0,0,1,3.84-36.8,75.74,75.74,0,0,1,20.8-30.61.27.27,0,0,1,.38,0,.28.28,0,0,1,0,.39,75.13,75.13,0,0,0-20.65,30.39,76,76,0,0,0-3.81,36.54c3.35,24.5,19.95,47,42.31,57.32a.28.28,0,0,1,.13.36A.27.27,0,0,1,336.48,201.07Z"></path><path d="M301.07,115.46a3.18,3.18,0,0,0-2.74.81,9.94,9.94,0,0,0-2.37,2.84,27.31,27.31,0,0,0-1.56,3.11c-.19.43-.29.8-.38,1.06s-.13.4-.13.4l-.39,3.19c.49-1.28,2.44-3.16,5.45-4.24a6.48,6.48,0,0,0,3.49-3.68C303.1,117.44,302.91,115.93,301.07,115.46Z"></path><path d="M290,112.68c-1.84-.47-2.77,1.14-2.94,3.15s.69,4.38,1.95,5.41c2.57,2.1,4.2,4.3,4.4,5.62l.25-3.2-.17-1.56a32,32,0,0,0-.46-3.52,20.37,20.37,0,0,0-1-3.74A3.35,3.35,0,0,0,290,112.68Z"></path><path d="M299.26,126.17a3.28,3.28,0,0,0-2.61,1.23,11.54,11.54,0,0,0-1.87,3.17c-.25.6-.47,1.19-.66,1.76s-.28,1.1-.38,1.55c-.2.92-.28,1.53-.28,1.53,0,1.07,0,2.14.07,3.21.25-1.34,2-3.49,4.76-5S303,126.53,299.26,126.17Z"></path><path d="M287.93,125.15c-3.88-.38-2.6,7,.37,8.59s4.74,3.61,5.17,4.88c-.1-1.06-.14-2.13-.21-3.2,0,0-.13-.6-.4-1.52-.13-.45-.29-1-.47-1.57s-.33-1.21-.54-1.83a17.24,17.24,0,0,0-1.61-3.55A3.24,3.24,0,0,0,287.93,125.15Z"></path><path d="M299.11,137.05a2.56,2.56,0,0,0-1.31.48,3.84,3.84,0,0,0-1.06,1.13,12,12,0,0,0-1.36,3.42c-.17.63-.3,1.25-.4,1.84s-.11,1.13-.13,1.6c-.05.93-.05,1.55-.05,1.55l.27,1.58a13.62,13.62,0,0,0,.31,1.57,5.14,5.14,0,0,1,1-2.63,13.18,13.18,0,0,1,2.89-3.06,5.84,5.84,0,0,0,1.52-2,6.94,6.94,0,0,0,.71-2.53,3.14,3.14,0,0,0-.49-2.11A2,2,0,0,0,299.11,137.05Z"></path><path d="M287.76,137.77a2,2,0,0,0-1.84,1.25,4.64,4.64,0,0,0,.05,2.63,8.78,8.78,0,0,0,1.32,2.8,5.06,5.06,0,0,0,2.16,1.77,18.13,18.13,0,0,1,3.86,2,7.31,7.31,0,0,1,2,2,12.22,12.22,0,0,1-.38-1.56l-.34-1.57s-.23-.58-.62-1.44c-.2-.44-.44-.94-.72-1.49s-.51-1.13-.81-1.72a15.52,15.52,0,0,0-2.12-3.26,6.57,6.57,0,0,0-1.24-1.07A2.32,2.32,0,0,0,287.76,137.77Z"></path><path d="M300.63,147.81c-1.91.41-2.64,3-2.9,5.55a15.2,15.2,0,0,0,0,3.47c.08.93.18,1.55.18,1.55l.5,1.52c.16.52.4,1,.59,1.49-.27-1.31.81-3.93,3-6.23a5.27,5.27,0,0,0,1.16-2.24,7.09,7.09,0,0,0,.32-2.62C303.34,148.67,302.45,147.42,300.63,147.81Z"></path><path d="M289.53,150.29c-1.89.41-2,2.26-1.15,4.11A8.67,8.67,0,0,0,290.1,157a5.57,5.57,0,0,0,2.43,1.41c3.28.7,5.54,2,6.45,3-.22-.49-.48-1-.66-1.47l-.56-1.5s-.31-.54-.83-1.34-1.29-1.84-2-2.92C293.38,152.06,291.33,149.91,289.53,150.29Z"></path><path d="M303.81,158.2c-1.78.68-2.14,3.34-2,5.94a19.92,19.92,0,0,0,.59,3.42c.23.91.41,1.5.41,1.5a29.49,29.49,0,0,0,1.57,2.8,5.3,5.3,0,0,1,.11-2.79,13.36,13.36,0,0,1,1.85-3.83C308,162.6,307.38,156.83,303.81,158.2Z"></path><path d="M293.23,162.38c-3.54,1.36.82,7.44,4.25,7.5a17.56,17.56,0,0,1,4.25.75,7.06,7.06,0,0,1,2.59,1.26c-.58-.9-1.2-1.78-1.69-2.73,0,0-.38-.49-1-1.2s-1.55-1.62-2.47-2.56C297.32,163.52,295,161.7,293.23,162.38Z"></path><path d="M308.6,168c-1.64.94-1.62,3.65-1.08,6.19a30.07,30.07,0,0,0,1.74,4.72c.64.85,1.33,1.67,2,2.5a5.7,5.7,0,0,1-.32-2.77,12.54,12.54,0,0,1,1.22-4.07,5.31,5.31,0,0,0,.44-2.51,6.47,6.47,0,0,0-.19-1.32,6.85,6.85,0,0,0-.35-1.24C311.46,167.93,310.24,167,308.6,168Z"></path><path d="M298.8,173.73c-1.64,1-1.16,2.75.15,4.28a7.13,7.13,0,0,0,1.12,1.07,9.38,9.38,0,0,0,1.36.81,5.38,5.38,0,0,0,2.71.6,19.67,19.67,0,0,1,4.33.08,6.37,6.37,0,0,1,2.75.84c-.71-.81-1.44-1.59-2.11-2.42a34.57,34.57,0,0,0-4-3.18C303,174.25,300.45,172.78,298.8,173.73Z"></path><path d="M314.85,176.85a3.17,3.17,0,0,0-1,2.69,9.8,9.8,0,0,0,.86,3.6,27.37,27.37,0,0,0,1.58,3.09,10.38,10.38,0,0,0,.86,1.31l2.35,2.18a5.74,5.74,0,0,1-.72-2.72,10.73,10.73,0,0,1,.06-1.94,14.15,14.15,0,0,1,.49-2.24,6.55,6.55,0,0,0-.89-5C317.65,176.4,316.32,175.66,314.85,176.85Z"></path><path d="M306.06,184.08c-1.47,1.19-.73,2.9.78,4.23s3.94,2,5.52,1.64a18.72,18.72,0,0,1,2.27-.43,14.08,14.08,0,0,1,2-.19,6.21,6.21,0,0,1,2.82.43L317,187.68s-.54-.31-1.33-.82a31.77,31.77,0,0,0-3.11-1.71,20.86,20.86,0,0,0-3.6-1.43A3.35,3.35,0,0,0,306.06,184.08Z"></path><path d="M322.39,184.68a3.21,3.21,0,0,0-.56,2.82,8.31,8.31,0,0,0,.52,1.73,16.21,16.21,0,0,0,.91,1.68,27.71,27.71,0,0,0,2,2.84c.62.69,1.07,1.12,1.07,1.12l2.64,1.82c-.91-1-1.65-3.63-1.23-6.78a6.55,6.55,0,0,0-1.63-4.82C325.05,183.85,323.67,183.26,322.39,184.68Z"></path><path d="M314.82,193.18c-1.26,1.39-.32,3,1.42,4.06s4.19,1.43,5.69.79c3.06-1.32,5.75-1.73,7-1.29L326.23,195s-.57-.24-1.47-.57a33.08,33.08,0,0,0-3.31-1.24c-.64-.2-1.3-.37-1.95-.51a13.18,13.18,0,0,0-1.84-.32A3.29,3.29,0,0,0,314.82,193.18Z"></path><path d="M331,191.27a3.23,3.23,0,0,0-.12,2.88,10.67,10.67,0,0,0,1.94,3.12c.41.49.84,1,1.25,1.39.21.22.41.42.61.61l.58.48c.72.59,1.23.95,1.23.95l2.88,1.42c-1.06-.87-2.18-3.38-2.26-6.53a6.81,6.81,0,0,0-2.35-4.52,4,4,0,0,0-1-.61,2.58,2.58,0,0,0-1-.27A2,2,0,0,0,331,191.27Z"></path><path d="M324.88,200.83a2,2,0,0,0-.08,2.21,3.26,3.26,0,0,0,.84.91,6.39,6.39,0,0,0,1.28.65c1.9.71,4.32.84,5.74-.09,2.82-1.79,5.4-2.57,6.72-2.34l-2.93-1.29s-.6-.16-1.54-.35l-.76-.14-.84-.19c-.59-.13-1.22-.26-1.88-.36a17.91,17.91,0,0,0-3.88-.22A3.24,3.24,0,0,0,324.88,200.83Z"></path><path d="M304.21,105.86c-1.74-.74-3.88.9-5.58,2.87a28.49,28.49,0,0,0-2,2.86c-.24.41-.43.75-.56,1a2.56,2.56,0,0,0-.19.38l-.81,3.1c.66-1.2,2.8-2.79,6-3.4a5.35,5.35,0,0,0,2.27-1.16,6,6,0,0,0,.94-.94,7.35,7.35,0,0,0,.78-1C306,108.13,306,106.59,304.21,105.86Z"></path><path d="M293.7,101.51c-1.75-.74-2.88.73-3.31,2.7a7.13,7.13,0,0,0-.18,1.54,9.09,9.09,0,0,0,.17,1.57,5.43,5.43,0,0,0,1.14,2.53c2.16,2.43,3.52,4.86,3.54,6.2l.67-3.14s0-.61.1-1.56a31.77,31.77,0,0,0,0-3.56C295.82,105.16,295.46,102.25,293.7,101.51Z"></path><path d="M308.76,96.83a3.21,3.21,0,0,0-2.87,0,11.93,11.93,0,0,0-3.07,2.05c-.25.21-.49.42-.72.64s-.41.45-.61.67c-.39.44-.74.86-1,1.23-.59.73-.94,1.25-.94,1.25-.5,1-.84,2-1.26,2.94a5.52,5.52,0,0,1,2.28-1.61,13.43,13.43,0,0,1,4.15-.88,5.32,5.32,0,0,0,2.4-.83,7.26,7.26,0,0,0,2-1.69,3.06,3.06,0,0,0,.79-2A2,2,0,0,0,308.76,96.83Z"></path><path d="M299,91a2,2,0,0,0-2.22,0,4.5,4.5,0,0,0-1.46,2.19,8.1,8.1,0,0,0-.49,3,5.61,5.61,0,0,0,.79,2.69,17.6,17.6,0,0,1,2,3.83,6.65,6.65,0,0,1,.59,2.81c.37-1,.68-2,1.13-3,0,0,.15-.6.32-1.53.09-.47.18-1,.27-1.62l.12-.94q.09-.46.15-1a15,15,0,0,0,.1-3.88A3.37,3.37,0,0,0,299,91Z"></path><path d="M314.56,88.55c-1.46-1.2-4.08-.31-6.18,1.16a17.92,17.92,0,0,0-2.72,2.16c-.67.65-1.09,1.11-1.09,1.11-.57.9-1.2,1.78-1.69,2.72a3.44,3.44,0,0,1,1-.7,8.09,8.09,0,0,1,1.54-.54,13,13,0,0,1,4.2-.29,4.31,4.31,0,0,0,1.23-.09,6.74,6.74,0,0,0,1.29-.37,6.63,6.63,0,0,0,2.21-1.4,3.59,3.59,0,0,0,1.11-1.84A2.07,2.07,0,0,0,314.56,88.55Z"></path><path d="M305.72,81.39a1.93,1.93,0,0,0-2.18-.32A4.09,4.09,0,0,0,301.75,83a9,9,0,0,0-.9,3,7.14,7.14,0,0,0,0,1.46,4.46,4.46,0,0,0,.38,1.28,18.06,18.06,0,0,1,1.47,4.11,8.58,8.58,0,0,1,.21,1.61,4.73,4.73,0,0,1-.07,1.24c.45-1,1-1.87,1.58-2.8,0,0,.22-.58.52-1.48s.71-2.11,1.06-3.39C306.62,85.42,307.2,82.6,305.72,81.39Z"></path><path d="M321.47,81.18a3.18,3.18,0,0,0-2.74-.81,10.25,10.25,0,0,0-3.54,1.06,30.33,30.33,0,0,0-3,1.75,9.35,9.35,0,0,0-.9.68l-.33.27-2.07,2.44c1.11-.8,3.76-1.3,6.88-.55a6.57,6.57,0,0,0,4.95-1.16C322.08,84,322.74,82.58,321.47,81.18Z"></path><path d="M313.75,72.81c-1.27-1.4-2.93-.56-4.16,1s-1.83,4-1.34,5.59c1,3.15,1.14,5.89.58,7.11l2-2.54.72-1.4a31.05,31.05,0,0,0,1.55-3.19,20,20,0,0,0,1.21-3.68A3.35,3.35,0,0,0,313.75,72.81Z"></path><path d="M315,79.44l.8-1.17c.51-.72,1.2-1.74,2-2.84s1.85-2.22,2.83-3.32,2.06-2,2.94-2.78a8.24,8.24,0,0,1,2.5-1.51,4.89,4.89,0,0,1,2-.37c1.09,0,1.7.65,1.72,1.4,0,1.52-2.79,3.51-5.26,5-1.3.66-3.64,2-5.76,3.21Z"></path><path d="M315,79.62a.19.19,0,0,1-.13-.05.18.18,0,0,1,0-.23l1.18-1.71c.46-.65,1-1.46,1.67-2.31,1-1.22,2-2.34,2.84-3.33a40,40,0,0,1,2.95-2.79,8.1,8.1,0,0,1,2.56-1.54,5,5,0,0,1,2-.39c1.13.06,1.87.67,1.89,1.58,0,1.29-1.72,3-5.34,5.15-.83.42-2.07,1.12-3.38,1.87l-2.39,1.35-3.77,2.37A.19.19,0,0,1,315,79.62Zm12.92-12a5,5,0,0,0-1.74.36,7.91,7.91,0,0,0-2.45,1.48,39.28,39.28,0,0,0-2.92,2.76c-.88,1-1.83,2.1-2.83,3.32-.64.83-1.2,1.64-1.65,2.28l-.68,1,3-1.92,2.41-1.35c1.31-.74,2.55-1.45,3.37-1.86,4.29-2.58,5.17-4.06,5.16-4.84s-.62-1.17-1.55-1.22Z"></path><path d="M401,201.11a.25.25,0,0,1-.24-.15.26.26,0,0,1,.13-.36l2-.95c.42-.21.83-.44,1.24-.67l.7-.39,2.91-1.63c.19-.11.39-.24.58-.37l4.05-2.67,3.52-2.69a79.58,79.58,0,0,0,12.41-12.61,76.28,76.28,0,0,0,9.11-15.17l1-2.41a15.09,15.09,0,0,0,.66-1.66l1.48-4.2.33-1.16a68.71,68.71,0,0,0,1.79-7.43l.42-2.19c.09-.46.14-.94.19-1.4,0-.27.05-.53.09-.8.05-.51.11-1,.18-1.56.11-.93.22-1.89.28-2.84l.17-4.44c0-.63,0-1.27,0-1.89l-.08-2.54a75,75,0,0,0-20.34-48,.28.28,0,0,1,0-.39.27.27,0,0,1,.38,0,75.69,75.69,0,0,1,20.49,48.31l.07,2.54a17.93,17.93,0,0,1,0,1.94l-.17,4.44c-.05,1-.17,1.94-.28,2.88q-.11.78-.18,1.56-.06.39-.09.78a14.43,14.43,0,0,1-.2,1.45l-.42,2.18a66.27,66.27,0,0,1-1.8,7.48l-.33,1.18-1.48,4.22c-.19.58-.44,1.15-.68,1.7l-1.06,2.41A77,77,0,0,1,428.73,179a80.23,80.23,0,0,1-12.5,12.69l-3.54,2.71L408.63,197c-.21.13-.41.27-.62.39l-2.92,1.63-.69.39c-.42.24-.84.47-1.27.69l-2,1Z"></path><path d="M448.68,117.63c-1.84.36-2.86,3-3.42,5.48a32.09,32.09,0,0,0-.94,4.82l0,3.07c.3-1.25,2.09-3.27,4.72-5.14a5.24,5.24,0,0,0,1.64-2.15,7,7,0,0,0,.49-1.44,7.41,7.41,0,0,0,.15-1.47C451.34,118.87,450.57,117.27,448.68,117.63Z"></path><path d="M437.5,119.71c-1.84.35-2.19,1.79-1.66,3.27a5.47,5.47,0,0,0,.54,1.12,7.67,7.67,0,0,0,.73,1.06,5.41,5.41,0,0,0,2,1.52c3,1.19,4.81,3.08,5.2,4.33l-.16-3.07a27,27,0,0,0-1.79-4.47C441.07,121.3,439.38,119.34,437.5,119.71Z"></path><path d="M450,129.65a3.3,3.3,0,0,0-2.43,1.6,13.71,13.71,0,0,0-.94,1.56c-.31.56-.59,1.15-.85,1.74a32.55,32.55,0,0,0-1.15,3.2,10.17,10.17,0,0,1-.33,1l-.13.4-.41,3a5.9,5.9,0,0,1,1.8-2.1,20.18,20.18,0,0,1,3.63-2.29c1.44-.72,2.65-2.77,3-4.68S451.84,129.57,450,129.65Z"></path><path d="M438.6,130c-1.92.08-2.36,1.46-2.09,3a6.19,6.19,0,0,0,2.68,4.15,11.66,11.66,0,0,1,3.19,2.63,5.47,5.47,0,0,1,1.29,2.4l.28-3.05,0-.41a8.41,8.41,0,0,0-.18-1.07,26.77,26.77,0,0,0-.91-3.21,15.05,15.05,0,0,0-.72-1.69,7.11,7.11,0,0,0-1-1.43A3.26,3.26,0,0,0,438.6,130Z"></path><path d="M449.48,141.71a3.3,3.3,0,0,0-2.63,1.23,10.11,10.11,0,0,0-1.13,1.41c-.39.51-.76,1.05-1.1,1.6a29.37,29.37,0,0,0-1.62,3c-.2.41-.34.75-.47,1l-.19.37-.87,3a6,6,0,0,1,2.1-1.81,21.33,21.33,0,0,1,3.92-1.73c1.54-.49,3-2.35,3.68-4.18S451.36,141.91,449.48,141.71Z"></path><path d="M438.18,140.44c-1.9-.21-2.56,1.09-2.47,2.66a6.15,6.15,0,0,0,2,4.48,11.65,11.65,0,0,1,2.77,3.08,5.46,5.46,0,0,1,.92,2.56l.73-3,0-.41a8.75,8.75,0,0,0,0-1.09,26,26,0,0,0-.41-3.31,14.82,14.82,0,0,0-.46-1.77,9.21,9.21,0,0,0-.79-1.57A3.23,3.23,0,0,0,438.18,140.44Z"></path><path d="M447.24,153.58a3.35,3.35,0,0,0-2.79.83,10.73,10.73,0,0,0-1.33,1.22c-.46.45-.91.93-1.32,1.42a30.72,30.72,0,0,0-2.05,2.72c-.25.38-.46.69-.62.9l-.24.33-1.29,2.79a6,6,0,0,1,2.34-1.48,21.72,21.72,0,0,1,4.14-1.12c1.59-.26,3.35-1.87,4.26-3.59S449.07,154.06,447.24,153.58Z"></path><path d="M436.25,150.64c-1.84-.48-2.69.7-2.84,2.26a6.15,6.15,0,0,0,1.33,4.73,11.68,11.68,0,0,1,2.28,3.46,5.4,5.4,0,0,1,.52,2.68l1.17-2.84.08-.4a6.85,6.85,0,0,0,.14-1.07,25.15,25.15,0,0,0,.08-3.34,13.51,13.51,0,0,0-.19-1.82,8.84,8.84,0,0,0-.54-1.67A3.24,3.24,0,0,0,436.25,150.64Z"></path><path d="M443.25,165a3.28,3.28,0,0,0-2.88.41,10.29,10.29,0,0,0-1.5,1,17.92,17.92,0,0,0-1.52,1.21,31.08,31.08,0,0,0-2.43,2.38c-.29.34-.58.6-.76.79l-.28.3-1.69,2.57a6.06,6.06,0,0,1,2.53-1.12A21.37,21.37,0,0,1,439,172c1.62,0,3.59-1.35,4.74-2.91S445,165.73,443.25,165Z"></path><path d="M432.82,160.44c-1.75-.76-2.75.29-3.15,1.81a6.15,6.15,0,0,0,.62,4.88,11.92,11.92,0,0,1,1.73,3.76,5.56,5.56,0,0,1,.13,2.73l1.56-2.64.14-.38a8.12,8.12,0,0,0,.31-1,25.23,25.23,0,0,0,.57-3.29,14.24,14.24,0,0,0,.08-1.83,7.28,7.28,0,0,0-.28-1.73A3.27,3.27,0,0,0,432.82,160.44Z"></path><path d="M437.6,175.67c-1.64-1-4,.38-6.23,1.71a31.34,31.34,0,0,0-2.74,2c-.74.54-1.2.91-1.2.91l-2,2.3c1.06-.74,3.71-1,7-.58,1.59.22,3.73-.81,5.1-2.19a3.76,3.76,0,0,0,1.17-2.23A2,2,0,0,0,437.6,175.67Z"></path><path d="M428,169.62a2.06,2.06,0,0,0-2.07-.25,3.24,3.24,0,0,0-1.33,1.57,6.21,6.21,0,0,0-.1,4.93c1.34,2.85,1.43,5.49.88,6.69l1.93-2.39s.29-.51.67-1.32a27.69,27.69,0,0,0,1-3.18C429.65,173.31,429.56,170.6,428,169.62Z"></path><path d="M430.43,185.4a3.25,3.25,0,0,0-2.86-.45,7.1,7.1,0,0,0-.85.22l-.9.27c-.61.21-1.22.46-1.8.72-1.17.52-2.21,1.14-3,1.58s-1.33.72-1.33.72l-2.34,2c1.16-.57,3.8-.51,7,.45,1.54.46,3.8-.26,5.35-1.42a5.62,5.62,0,0,0,1-.95,3.32,3.32,0,0,0,.51-1.08A1.93,1.93,0,0,0,430.43,185.4Z"></path><path d="M421.8,178a2,2,0,0,0-2-.56,2.2,2.2,0,0,0-.83.51,4.64,4.64,0,0,0-.73.84,6.29,6.29,0,0,0-.81,4.88c.88,3,.6,5.64-.12,6.74l2.24-2.08s.37-.47.86-1.22a21.74,21.74,0,0,0,1.51-3,16.11,16.11,0,0,0,.6-1.73c.08-.29.14-.58.19-.86a6.35,6.35,0,0,0,.07-.85A3.29,3.29,0,0,0,421.8,178Z"></path><path d="M421.91,194a3.25,3.25,0,0,0-2.75-.87,16.71,16.71,0,0,0-3.7.67c-.62.18-1.21.38-1.75.58l-.77.29-.7.24c-.87.3-1.42.52-1.42.52l-2.6,1.63c1.23-.39,3.82,0,6.82,1.46,1.49.72,3.8.31,5.51-.61S423.15,195.37,421.91,194Z"></path><path d="M414.47,185.35c-1.26-1.44-2.57-.87-3.65.25a6.4,6.4,0,0,0-1.52,4.7c.43,3.1-.24,5.69-1.11,6.67l2.53-1.74s.42-.41,1-1.08c.15-.17.31-.34.47-.54l.49-.67c.32-.47.66-1,1-1.51a10.58,10.58,0,0,0,1.37-3.28A3.36,3.36,0,0,0,414.47,185.35Z"></path><path d="M412.22,201.17a3.22,3.22,0,0,0-2.6-1.26,14.48,14.48,0,0,0-3.76.11c-1.26.17-2.43.47-3.35.6s-1.47.32-1.47.32l-2.81,1.23c1.26-.21,3.76.61,6.51,2.44S414.35,204.45,412.22,201.17Z"></path><path d="M406.13,191.56c-1-1.6-2.42-1.27-3.64-.31a6.63,6.63,0,0,0-2,3.23,3.86,3.86,0,0,0-.2,1.19c0,3.13-1.07,5.6-2.08,6.45l2.75-1.36s.49-.35,1.17-.92a15.34,15.34,0,0,0,2.33-2.4,11.56,11.56,0,0,0,1.84-3A3.32,3.32,0,0,0,406.13,191.56Z"></path><path d="M445.84,106.76A3.25,3.25,0,0,0,444,109a15.12,15.12,0,0,0-.78,3.67c-.07.64-.09,1.26-.13,1.84s-.08,1.11-.1,1.57c0,.91,0,1.5,0,1.5.09.5.2,1,.27,1.51l.2,1.52a6.66,6.66,0,0,1,1.16-2.52,17.6,17.6,0,0,1,2.8-3.22C449.92,112.67,449.5,105.5,445.84,106.76Z"></path><path d="M435.05,110.36c-1.81.62-1.81,2.06-1.16,3.47a6.48,6.48,0,0,0,1.58,2,5.57,5.57,0,0,0,2.16,1.24,13,13,0,0,1,3.84,1.62,4.92,4.92,0,0,1,1.89,1.94l-.26-1.51c-.09-.5-.23-1-.34-1.49,0,0-.23-.55-.64-1.35-.2-.4-.44-.87-.72-1.36s-.66-1-1-1.48a10.7,10.7,0,0,0-2.52-2.51A3.32,3.32,0,0,0,435.05,110.36Z"></path><path d="M441.55,96.37A3.38,3.38,0,0,0,440,98.85a18.6,18.6,0,0,0-.23,3.73A32,32,0,0,0,440,106c.07.91.15,1.5.15,1.5.3,1,.63,2,.91,2.93,0-1.29,1-3.69,3.13-6.24,1-1.24,1.27-3.62.8-5.5S443.25,95.51,441.55,96.37Z"></path><path d="M431.37,101.44c-1.69.86-1.59,2.32-.65,3.59a6.22,6.22,0,0,0,4.14,2.65c3.12.35,5.46,1.64,6.18,2.74-.33-1-.7-1.92-1-2.88,0,0-.3-.52-.79-1.26a26.33,26.33,0,0,0-2.15-2.56,9.65,9.65,0,0,0-2.87-2.12A3.21,3.21,0,0,0,431.37,101.44Z"></path><path d="M435.86,86.68a3.42,3.42,0,0,0-1.19,2.66,14.08,14.08,0,0,0,.29,3.73c.22,1.25.46,2.47.69,3.34s.41,1.45.41,1.45c.44.92.85,1.86,1.27,2.79-.23-1.27.57-3.83,2.22-6.61C441.37,91.26,439.05,84.46,435.86,86.68Z"></path><path d="M426.48,93.11a2.06,2.06,0,0,0-1.06,1.79,2.88,2.88,0,0,0,.88,1.87,6.63,6.63,0,0,0,4.48,2.06c3.21-.13,5.64.86,6.5,1.85-.47-.91-.92-1.83-1.39-2.73,0,0-.39-.46-1-1.12a20,20,0,0,0-2.45-2.25,11.39,11.39,0,0,0-3.13-1.71A3.17,3.17,0,0,0,426.48,93.11Z"></path><path d="M428.88,77.88c-1.41,1.31-.74,4,0,6.46.38,1.22.86,2.33,1.17,3.2s.57,1.39.57,1.39c.58.85,1.17,1.68,1.67,2.58a3.83,3.83,0,0,1-.12-1.19,9.49,9.49,0,0,1,.14-1.58,17.93,17.93,0,0,1,1.28-4.09c.7-1.53.23-3.82-.73-5.51S430.27,76.6,428.88,77.88Z"></path><path d="M420.47,85.54c-1.41,1.29-.86,2.63.35,3.63a6.48,6.48,0,0,0,4.72,1.43,12.94,12.94,0,0,1,4.15-.06,7.33,7.33,0,0,1,1.54.4,3.29,3.29,0,0,1,1,.6c-.54-.87-1.17-1.68-1.78-2.5,0,0-.43-.41-1.11-1a17.08,17.08,0,0,0-2.76-1.88,9.69,9.69,0,0,0-3.33-1.27A3.26,3.26,0,0,0,420.47,85.54Z"></path><path d="M426.9,84.29l-.28-.23c-.18-.15-.45-.36-.79-.6l-2.64-2c-1-.76-2.24-1.53-3.32-2.32-.53-.4-1.09-.76-1.61-1.11s-1-.68-1.4-1a13.49,13.49,0,0,1-1.08-.94,7.54,7.54,0,0,1-.84-.88,4.53,4.53,0,0,1-.86-1.65,1.66,1.66,0,0,1,.73-2.11c.68-.27,1.75.09,2.91.78.29.17.58.37.88.58s.56.46.84.71a19.84,19.84,0,0,1,1.58,1.6c.23.28.53.61.83,1l.94,1.33,1,1.49.51.75.46.78c.58,1,1.13,2,1.53,2.63.2.34.34.62.44.82Z"></path><path d="M426.9,84.47a.21.21,0,0,1-.11,0l-.28-.23c-.21-.17-.48-.38-.79-.6l-2.64-1.95c-.52-.38-1.09-.78-1.64-1.15s-1.13-.78-1.67-1.17c-.39-.3-.79-.56-1.18-.82l-.43-.29c-.53-.36-1-.7-1.41-1a14,14,0,0,1-1.1-.95,7.86,7.86,0,0,1-.85-.9,4.76,4.76,0,0,1-.9-1.72,1.82,1.82,0,0,1,.84-2.31c.86-.36,2.14.23,3.07.78.28.17.58.37.89.59s.61.5.86.73A17.24,17.24,0,0,1,421.15,75l.09.1c.22.26.48.56.75.92l2.48,3.58.46.78,1.53,2.64a8.29,8.29,0,0,1,.45.84l.15.3a.2.2,0,0,1,0,.23A.28.28,0,0,1,426.9,84.47ZM415.34,71.58a1.3,1.3,0,0,0-.46.08c-.61.25-.86,1-.63,1.89a4.43,4.43,0,0,0,.84,1.58,6.43,6.43,0,0,0,.81.86,11.53,11.53,0,0,0,1.07.93c.4.31.87.64,1.4,1l.42.29c.39.26.8.53,1.19.82s1.11.79,1.66,1.17,1.13.77,1.65,1.16l2.65,2,.43.32c-.06-.12-.14-.25-.22-.39l-2-3.41-1.52-2.23-.94-1.33c-.26-.34-.51-.64-.74-.9l-.08-.09a19.38,19.38,0,0,0-1.56-1.58c-.25-.23-.54-.48-.83-.71s-.59-.4-.87-.57A4.93,4.93,0,0,0,415.34,71.58Z"></path><path d="M423.75,152.87c-.9.06-.95-.56-1.1-1.16q-5.79-23.52-11.58-47c-.36-1.43-1-2.87-.14-4.36.08-.14,0-.37.07-.54a4.74,4.74,0,0,1,.41-1.07,2.32,2.32,0,0,0,0-2.68,2.35,2.35,0,0,0-2.45-.9c-3,.6-6.05,1.15-9.07,1.76a19.38,19.38,0,0,1-13.86-2A27.11,27.11,0,0,0,377.15,92c-1.7-.28-3.42-.42-5.16-.61L375.24,85a.82.82,0,0,0,0-.76l-5.38-10.09a.82.82,0,0,0-1.44,0l-5.48,10.08a.84.84,0,0,0,0,.8l3.53,6.32-.44.06c-1.63.16-3.26.24-4.87.48a38.89,38.89,0,0,0-11.4,4,12.91,12.91,0,0,1-7.7,1.44c-4.3-.64-8.57-1.41-12.84-2.16a2.37,2.37,0,0,0-2.51.74,2,2,0,0,0-.27,2.42,3.81,3.81,0,0,1,.7,2.12,6.66,6.66,0,0,0,.19.7,4.52,4.52,0,0,1,.12,1.58q-3.66,15-7.39,30.06-2.35,9.57-4.69,19.13c-.13.52-.22,1-1,1-.19,0-.58.41-.58.64,0,.55.1,1.55.28,1.58,1.19.2,1,1.16,1.14,1.85.39,1.56.82,2,2.39,2h21.19c2.34,0,2.48-.12,3-2.43a2.11,2.11,0,0,1,.17-.62c.14-.23.33-.52.56-.59,1.06-.34.48-1.19.56-1.8s-.45-.67-.9-.62c-.61.06-.92-.18-1-.79a4.46,4.46,0,0,0-.18-.72q-5.91-24-11.81-47.92c-.21-.85-.59-1.71.07-2.56.15-.19.12-.53.15-.81a1.51,1.51,0,0,1,2-1.37c3,.75,6,1.58,9.06,2.22a21.83,21.83,0,0,0,12.57-.68,22.6,22.6,0,0,1,3.57-1,1.57,1.57,0,0,1,1.16.22,15.85,15.85,0,0,0,2.37,1.4,9.26,9.26,0,0,0,6.71,8.86,1.18,1.18,0,0,0,0,.21V117c0,.25,0,.51,0,.77q0,16,0,32a1.77,1.77,0,0,1-.41,1.14,7.93,7.93,0,0,0-2,4.09,10.35,10.35,0,0,0,.8,6.26,2.53,2.53,0,0,0-1.58,2.24,2.67,2.67,0,0,0,1.51,2.39c-1.6,1.62-1.94,3.67-2.2,5.72s-.44,4.35-.61,6.54c-.07.82-.34,1.22-1.24,1.1a10.58,10.58,0,0,0-1.95,0,1.62,1.62,0,0,0-1.74,1.56,1.07,1.07,0,0,1-.22.79H342.28a2,2,0,1,0,0,4.1h53.66a2,2,0,1,0,0-4.1H381c0-.13,0-.21,0-.29-.09-1.46-.7-2.06-2.14-2.07a16.31,16.31,0,0,0-1.85,0c-.68.06-.92-.22-1-.87-.16-2-.32-3.94-.55-5.89-.29-2.36-.54-4.74-2.27-6.6,2-1.33,2-3.35-.09-4.68.12-.33.27-.67.38-1,1-3.14.86-6.17-1.27-8.83a3.24,3.24,0,0,1-.79-2.23c0-9.13,0-29.13,0-39.34a9.24,9.24,0,0,0,7.18-9v-.27a15.82,15.82,0,0,0,1.78-1.1,1.49,1.49,0,0,1,1.08-.19,40.67,40.67,0,0,1,4.36,1.19,18.06,18.06,0,0,0,9.4.74c3.81-.69,7.57-1.67,11.35-2.55.54-.13,1-.27,1.36.32a5.25,5.25,0,0,1,.64,1.41,4.9,4.9,0,0,1,.36,2.47c-1.65,6.35-3.18,12.73-4.75,19.1q-3.66,14.89-7.33,29.81c-.17.72-.36,1.2-1.23,1.07a.86.86,0,0,0-.67.35,1.65,1.65,0,0,0,.7,2.08.82.82,0,0,1,.35.48,12.56,12.56,0,0,1,.31,1.35,2.17,2.17,0,0,0,.77,1.46h24.17v-.05h0c1,.07,1.3-.48,1.44-1.28.06-.34.12-.67.21-1s.13-1,.87-1.12c.22,0,.35-1,.39-1.51C424.23,153.36,423.9,152.86,423.75,152.87Zm-95.91-.13H316l11.68-47.44.19,0Zm0-53.09c1,.07,1.09.28.39,1.54Zm12.79,53.1c-.4,0-.67.06-.94.06-3.36,0-6.72,0-10.08,0-.75,0-.93-.24-.93-1q0-22.93,0-45.88a1,1,0,0,1,.24-.71ZM327.31,97.4c.2-.3.36-.82.7-1a1.25,1.25,0,0,1,1.16.16,3.27,3.27,0,0,1,.42,1.29Zm81.27.4c0-.27-.08-.81.14-1.07a1.34,1.34,0,0,1,1.17-.37c.38.13.61.65.91,1Zm.81,8.58q0,22.61,0,45.22c0,1.21,0,1.21-1.19,1.21H397.45c3.92-15.93,7.81-31.72,11.7-47.5l.24,0Zm.21-5.39a5.91,5.91,0,0,1-.17-1.16c0-.09.41-.16.82-.31-.14.63-.22,1-.31,1.47Zm5.18,51.82c-1.26,0-2.53,0-3.79,0-.65,0-.85-.2-.84-.84,0-3.12,0-6.23,0-9.35q0-18.42,0-36.83a.58.58,0,0,1,.25-.5c3.89,15.78,7.77,31.56,11.7,47.51Z"></path></g></g><g id="freepik--Flag--inject-42"><rect x="43.9" y="61.92" width="4.35" height="380.06" style="fill:#263238;stroke:#263238;stroke-linecap:round;stroke-linejoin:round"></rect><polygon points="81.12 441.98 45.85 71.93 15.23 437.31 20.91 441.98 81.12 441.98" style="fill:#d6d6d6;stroke:#263238;stroke-linecap:round;stroke-linejoin:round"></polygon><polygon points="84.1 441.98 73.95 297.03 26.93 372.83 69.89 441.98 84.1 441.98" style="fill:#fff;stroke:#263238;stroke-linecap:round;stroke-linejoin:round"></polygon><polygon points="86.97 337.58 26.93 372.83 45.85 71.93 86.97 337.58" style="fill:#fff;stroke:#263238;stroke-linecap:round;stroke-linejoin:round"></polygon><polygon points="45.85 71.93 86.97 337.58 54.99 316.04 45.85 71.93" style="fill:#fff;stroke:#263238;stroke-linecap:round;stroke-linejoin:round"></polygon><polygon points="54.99 316.04 70 290.59 52.38 258.61 54.99 316.04" style="fill:#d6d6d6;stroke:#263238;stroke-linecap:round;stroke-linejoin:round"></polygon><polygon points="45.85 71.93 20.4 260.56 70 290.59 45.85 71.93" style="fill:#fff;stroke:#263238;stroke-linecap:round;stroke-linejoin:round"></polygon><polygon points="43.9 61.92 38.29 52.05 46.36 36.23 54.44 52.7 48.25 61.92 43.9 61.92" style="fill:#263238;stroke:#263238;stroke-linecap:round;stroke-linejoin:round"></polygon></g><g id="freepik--speech-bubble--inject-42"><path d="M294.52,85.5H164.73A13.51,13.51,0,0,0,151.22,99v51.38a13.51,13.51,0,0,0,13.51,13.52H233.9l17.32,28.41-.64-28.41h43.94A13.52,13.52,0,0,0,308,150.39V99A13.52,13.52,0,0,0,294.52,85.5Z" style="fill:#263238;stroke:#263238;stroke-miterlimit:10"></path><path d="M290.31,79.6H160.52A13.51,13.51,0,0,0,147,93.11v51.38A13.51,13.51,0,0,0,160.52,158h69.17L247,186.42,246.36,158h43.95a13.51,13.51,0,0,0,13.51-13.51V93.11A13.51,13.51,0,0,0,290.31,79.6Z" style="fill:#fff;stroke:#263238;stroke-miterlimit:10"></path><path d="M182.09,133.2a7.66,7.66,0,0,1-4.58-1.21,6.58,6.58,0,0,1-2.39-3.4,16.64,16.64,0,0,1-.71-5.07v-9.4a15.62,15.62,0,0,1,.77-5.16,6.34,6.34,0,0,1,2.61-3.37,9.24,9.24,0,0,1,5-1.19,9.76,9.76,0,0,1,4.89,1,5.85,5.85,0,0,1,2.54,2.87,11.05,11.05,0,0,1,.76,4.28v1.8h-6v-2.28a10.7,10.7,0,0,0-.12-1.66,2.33,2.33,0,0,0-.55-1.23,2.32,2.32,0,0,0-2.86.07,2.64,2.64,0,0,0-.57,1.33,11.18,11.18,0,0,0-.12,1.66v13a8,8,0,0,0,.19,1.74,2.74,2.74,0,0,0,.69,1.32,2.35,2.35,0,0,0,2.92,0,2.76,2.76,0,0,0,.73-1.35,7.13,7.13,0,0,0,.21-1.76v-3.29H183v-3.63H191v14.53H187l-.35-2.32a5,5,0,0,1-1.63,1.95A4.82,4.82,0,0,1,182.09,133.2Z" style="fill:#263238"></path><path d="M203,133.2a10.07,10.07,0,0,1-5-1,5.66,5.66,0,0,1-2.54-3.08,14.62,14.62,0,0,1-.73-5V104.78h6.12V125a11.21,11.21,0,0,0,.14,1.73,2.83,2.83,0,0,0,.6,1.42,1.77,1.77,0,0,0,1.44.55,1.75,1.75,0,0,0,1.45-.55,2.81,2.81,0,0,0,.57-1.42,12.58,12.58,0,0,0,.12-1.73V104.78h6.16v19.33a14.35,14.35,0,0,1-.75,5,5.74,5.74,0,0,1-2.54,3.08A10,10,0,0,1,203,133.2Z" style="fill:#263238"></path><path d="M215.28,132.79v-28h6.19v28Z" style="fill:#263238"></path><path d="M225.65,132.79v-28h6.19V128.6h6.43v4.19Z" style="fill:#263238"></path><path d="M241.56,132.79V109.38h-4.22v-4.6H252v4.6h-4.19v23.41Z" style="fill:#263238"></path><path d="M258,132.79V121.34l-5.33-16.56h5.84l2.67,8.85,2.38-8.85h5.6l-5.22,16.56v11.45Z" style="fill:#263238"></path><path d="M270.7,132.79v-5.26H276v5.26Zm1.73-7.13-1.62-20.81h5.6l-2,20.81Z" style="fill:#263238"></path></g><g id="freepik--Character--inject-42"><path d="M302.52,283.49H454.13s6.62,3.09,7.06,17.21-5.3,22.51-9.71,25.15-7.06,2.65-8.39,5.3-4.85,29.57,0,57.37a349.72,349.72,0,0,1,4.86,53.4H263.48A141.44,141.44,0,0,0,269,402.2c-.17-39.29-5.77-94.85-3.18-104.83C269.87,281.72,302.52,283.49,302.52,283.49Z" style="fill:#263238;stroke:#263238;stroke-miterlimit:10"></path><path d="M431.92,314.35c-3.26,19.81-.12,39.37,1.91,60,1.48,15.14,10.15,52.07,7.06,64" style="fill:none;stroke:#828282;stroke-linecap:round;stroke-miterlimit:10"></path><path d="M443.81,289.5c-3.92,3-8.44,8.77-10.87,19.58-.11.49-.21,1-.31,1.47" style="fill:none;stroke:#828282;stroke-linecap:round;stroke-miterlimit:10"></path><path d="M451,286.14a10.27,10.27,0,0,0-2.15.54" style="fill:none;stroke:#828282;stroke-linecap:round;stroke-miterlimit:10"></path><path d="M403.11,342.33s-4.31,10.54-.48,18.2" style="fill:none;stroke:#828282;stroke-linecap:round;stroke-miterlimit:10"></path><path d="M404.54,369.63s-2.87,4.79.48,12.45" style="fill:none;stroke:#828282;stroke-linecap:round;stroke-miterlimit:10"></path><path d="M389.22,364.36s3.35,3.36,11,1.44" style="fill:none;stroke:#828282;stroke-linecap:round;stroke-miterlimit:10"></path><path d="M407.42,365.8a17.1,17.1,0,0,0,12,0" style="fill:none;stroke:#828282;stroke-linecap:round;stroke-miterlimit:10"></path><path d="M353,342.33s-4.32,10.54-.48,18.2" style="fill:none;stroke:#828282;stroke-linecap:round;stroke-miterlimit:10"></path><path d="M354.42,369.63s-2.87,4.79.48,12.45" style="fill:none;stroke:#828282;stroke-linecap:round;stroke-miterlimit:10"></path><path d="M339.1,364.36s3.35,3.36,11,1.44" style="fill:none;stroke:#828282;stroke-linecap:round;stroke-miterlimit:10"></path><path d="M357.3,365.8a17.09,17.09,0,0,0,12,0" style="fill:none;stroke:#828282;stroke-linecap:round;stroke-miterlimit:10"></path><path d="M302.86,342.33s-4.31,10.54-.47,18.2" style="fill:none;stroke:#828282;stroke-linecap:round;stroke-miterlimit:10"></path><path d="M304.3,369.63s-2.87,4.79.48,12.45" style="fill:none;stroke:#828282;stroke-linecap:round;stroke-miterlimit:10"></path><path d="M289,364.36s3.36,3.36,11,1.44" style="fill:none;stroke:#828282;stroke-linecap:round;stroke-miterlimit:10"></path><path d="M307.17,365.8a17.12,17.12,0,0,0,12,0" style="fill:none;stroke:#828282;stroke-linecap:round;stroke-miterlimit:10"></path><path d="M403.11,397.86s-4.31,10.54-.48,18.2" style="fill:none;stroke:#828282;stroke-linecap:round;stroke-miterlimit:10"></path><path d="M404.54,425.16s-2.87,4.79.48,12.45" style="fill:none;stroke:#828282;stroke-linecap:round;stroke-miterlimit:10"></path><path d="M389.22,419.89s3.35,3.35,11,1.44" style="fill:none;stroke:#828282;stroke-linecap:round;stroke-miterlimit:10"></path><path d="M407.42,421.33a17.1,17.1,0,0,0,12,0" style="fill:none;stroke:#828282;stroke-linecap:round;stroke-miterlimit:10"></path><path d="M353,397.86s-4.32,10.54-.48,18.2" style="fill:none;stroke:#828282;stroke-linecap:round;stroke-miterlimit:10"></path><path d="M354.42,425.16s-2.87,4.79.48,12.45" style="fill:none;stroke:#828282;stroke-linecap:round;stroke-miterlimit:10"></path><path d="M339.1,419.89s3.35,3.35,11,1.44" style="fill:none;stroke:#828282;stroke-linecap:round;stroke-miterlimit:10"></path><path d="M357.3,421.33a17.09,17.09,0,0,0,12,0" style="fill:none;stroke:#828282;stroke-linecap:round;stroke-miterlimit:10"></path><path d="M302.86,397.86s-4.31,10.54-.47,18.2" style="fill:none;stroke:#828282;stroke-linecap:round;stroke-miterlimit:10"></path><path d="M304.3,425.16s-2.87,4.79.48,12.45" style="fill:none;stroke:#828282;stroke-linecap:round;stroke-miterlimit:10"></path><path d="M289,419.89s3.36,3.35,11,1.44" style="fill:none;stroke:#828282;stroke-linecap:round;stroke-miterlimit:10"></path><path d="M307.17,421.33a17.12,17.12,0,0,0,12,0" style="fill:none;stroke:#828282;stroke-linecap:round;stroke-miterlimit:10"></path><path d="M253.9,284.41s-31.84,12.08-33.49,12.08-20.86-3.85-24.16-3.85a85.06,85.06,0,0,0-9.88,1.1s-11.53-10.43-23.61-8.24S57.9,355.78,56.8,361.82,42,442,42,442H449.35s-16.47-66.43-21.41-76.32S408.17,337.11,404.88,330s-18.12-14.83-24.71-15.38-36.23-3.29-36.23-3.29-14.28-5.49-16.47-6.59-14.13-10.18-14.13-10.18Z" style="fill:#92E3A9;stroke:#263238;stroke-miterlimit:10"></path><path d="M439.28,441.7s-11.61-45.39-28-57.52-41.17,0-55.94,14.25-20.06,42.74-20.06,42.74Z" style="fill:#263238;stroke:#263238;stroke-linecap:round;stroke-miterlimit:10"></path><path d="M125.8,440.64s-3.7-75.46-14.78-89.18S72.5,361,65.11,377.32s-17.42,63.85-17.42,63.85Z" style="fill:#263238;stroke:#263238;stroke-linecap:round;stroke-miterlimit:10"></path><path d="M340.87,392a220.12,220.12,0,0,0-18.2,23.51c-12.87,19.31-22.84,22.85-24.13,23.49" style="fill:none;stroke:#263238;stroke-linecap:round;stroke-miterlimit:10"></path><path d="M349.37,383s-1.43,1.37-3.81,3.87" style="fill:none;stroke:#263238;stroke-linecap:round;stroke-miterlimit:10"></path><path d="M384.62,373.77s18.81-7.8,33.28,2.49" style="fill:none;stroke:#263238;stroke-linecap:round;stroke-miterlimit:10"></path><path d="M143,401.59c.69,3.8,1.28,7.51,1.75,11" style="fill:none;stroke:#263238;stroke-linecap:round;stroke-miterlimit:10"></path><path d="M128,341.19s8.53,28,13.79,54.15" style="fill:none;stroke:#263238;stroke-linecap:round;stroke-miterlimit:10"></path><line x1="181.75" y1="306.12" x2="158.26" y2="348.91" style="fill:none;stroke:#263238;stroke-linecap:round;stroke-miterlimit:10"></line><line x1="175.98" y1="360.37" x2="174.35" y2="370.47" style="fill:none;stroke:#263238;stroke-linecap:round;stroke-miterlimit:10"></line><line x1="184" y1="310.63" x2="177.08" y2="353.51" style="fill:none;stroke:#263238;stroke-linecap:round;stroke-miterlimit:10"></line><path d="M229.14,390.42c.22,4.88.52,9.43.93,13.44" style="fill:none;stroke:#263238;stroke-linecap:round;stroke-miterlimit:10"></path><path d="M230.07,305.51s-2.3,46.87-1.1,80.87" style="fill:none;stroke:#263238;stroke-linecap:round;stroke-miterlimit:10"></path><path d="M330.87,331.49q.24,2.88.39,6.13" style="fill:none;stroke:#263238;stroke-linecap:round;stroke-miterlimit:10"></path><path d="M327.2,310.39s2,5.67,3.22,16.62" style="fill:none;stroke:#263238;stroke-linecap:round;stroke-miterlimit:10"></path><path d="M251.64,296.66s5.5,49.87,13.27,71.56,12.63,29.79,13.93,29.14,22-35.62,27.84-52.13,10.37-42.42,10.37-42.42Z" style="fill:#fff;stroke:#263238;stroke-miterlimit:10"></path><path d="M282.07,345.55l-12,15.55,6.48,7.77L269.75,381c5,12.18,8.09,16.9,9.09,16.4.58-.29,5.12-7.56,10.45-17l-5.6-11.2,8.1-10Z" style="fill:#263238;stroke:#263238;stroke-miterlimit:10"></path><path d="M264.91,368.22l.09.26,15.45-17.75,14.49,19.41c4.83-9,9.45-18.4,11.74-24.91,5.83-16.51,10.37-42.42,10.37-42.42l-65.41-6.15S257.14,346.52,264.91,368.22Z" style="fill:#fff;stroke:#263238;stroke-miterlimit:10"></path><path d="M253.9,306.37s19.75,52.78,29.79,50.19,33.36-53.75,33.36-53.75l-65.41-6.15Z" style="fill:#fff;stroke:#263238;stroke-miterlimit:10"></path><path d="M251.64,296.66l2.26,9.71s6.19,16.54,13.4,30.65c7,5.1,18.93,5.39,25.26,4a16.25,16.25,0,0,0,6.85-3.88c9-15.41,17.64-34.34,17.64-34.34Z" style="fill:#263238;stroke:#263238;stroke-miterlimit:10"></path><path d="M257.05,199.88s-11,10.33-14.21,18.08-1.61,50.36,1,61,14.53,38.42,20.34,46.49,21,8.71,28.41,7.1,14.2-12.59,17.11-15.5,15.49-25.5,18.07-34.86,3.88-27.44,4.52-35.19,1.94-23.56-1-30.67-8.72-12.91-10.66-13.88-3.87-6.13-19.37-10.33S267.7,192.78,257.05,199.88Z" style="fill:#fff;stroke:#263238;stroke-miterlimit:10"></path><path d="M308.06,318.92c-.07-4.32-.22-9.74-.75-12.24-.91-4.35-17.66-13.07-20.87-13.07s-19.5,3.9-23.86,5.5c-3,1.1-3.17,11.87-3,18.55a68.58,68.58,0,0,0,4.56,7.8c5.81,8.07,21,8.71,28.41,7.1C298.85,331.19,304.66,323.12,308.06,318.92Z" style="fill:#263238;stroke:#263238;stroke-miterlimit:10"></path><path d="M267.05,306.09s23.25-3.23,34.22,3.23" style="fill:none;stroke:#828282;stroke-linecap:round;stroke-miterlimit:10"></path><path d="M273.51,306.09a13.89,13.89,0,0,0,8.72,5.49c6.13,1.29,12.91-4.2,12.91-4.2S283.2,304.15,273.51,306.09Z" style="fill:#828282;stroke:#828282;stroke-linecap:round;stroke-miterlimit:10"></path><path d="M275.12,284.46s-2.58,6.13-1.29,8.07,7.75,4.52,11.3,4.84,9-1,10.65-2.9-1-8.72-1-8.72" style="fill:#fff;stroke:#263238;stroke-miterlimit:10"></path><path d="M280.71,261.49s-2.53,2.76-5,2.07-13.31-5.74-15.83-6.65-6.88.23-6.88.23a16,16,0,0,1,8.72-3c4.81,0,11.69,5.74,12.61,5.74A65.25,65.25,0,0,1,280.71,261.49Z" style="fill:#263238;stroke:#263238;stroke-miterlimit:10"></path><path d="M292.63,260.12s2.53,2.75,5.05,2.06,13.3-5.73,15.83-6.65,6.88.23,6.88.23a16,16,0,0,0-8.72-3c-4.81,0-11.7,5.73-12.61,5.73A64.92,64.92,0,0,0,292.63,260.12Z" style="fill:#263238;stroke:#263238;stroke-miterlimit:10"></path><path d="M269,265.05c0,2.09-1.08,3.78-2.41,3.78s-2.41-1.69-2.41-3.78,1.08-3.79,2.41-3.79S269,263,269,265.05Z" style="fill:#263238;stroke:#263238;stroke-miterlimit:10"></path><path d="M310.07,267c0,2.09-1.08,3.78-2.41,3.78s-2.41-1.69-2.41-3.78,1.08-3.79,2.41-3.79S310.07,264.91,310.07,267Z" style="fill:#263238;stroke:#263238;stroke-miterlimit:10"></path><path d="M274.74,270.9s-6.65,5.5-11.7,6.19" style="fill:none;stroke:#263238;stroke-miterlimit:10"></path><path d="M298.6,272.73s6.65,5.51,11.7,6.2" style="fill:none;stroke:#263238;stroke-miterlimit:10"></path><path d="M331.3,216.34c-2.91-7.1-8.72-12.91-10.66-13.88s-3.87-6.13-19.37-10.33-33.57.65-44.22,7.75c0,0-1.13,1.06-2.76,2.75,3-1.78,6.31-3.19,7.38-3.07,2.06.23,15.07,7.25,25.62,10.46s28.74-3.12,30.35-4a3.85,3.85,0,0,1,3.21-.23s7.11,5.51,8.26,11.7-5.28,16.52-3.9,22.94,2.52,9.86,3,10.55.46,6.65,1.38,8c.5.76,1.23-.24,1.81-1.44.38-4.18.67-7.93.88-10.52C332.91,239.26,334.2,223.45,331.3,216.34Z" style="fill:#263238;stroke:#263238;stroke-miterlimit:10"></path><path d="M249.28,233.28c.39-2.77-1.26-17.85-1.13-23.69a38.13,38.13,0,0,0-5.31,8.37c-1.83,4.4-2.1,20-1.52,34.67l.16-.08a3.93,3.93,0,0,0,1.61-2.75c0-1.61-.69-4.82.91-6.66S248.82,236.49,249.28,233.28Z" style="fill:#263238;stroke:#263238;stroke-miterlimit:10"></path><path d="M278.87,267.23s-24.77-3.67-25.69-3-1.15,10.32,0,12.15,22.25,4.13,23.85,3.67,2.3-.22,2.53-1.37.46-8,.69-9.18A1.75,1.75,0,0,0,278.87,267.23Z" style="fill:none;stroke:#263238;stroke-miterlimit:10"></path><path d="M294.05,268.09s24.77-3.67,25.69-3,1.14,10.32,0,12.16-22.25,4.13-23.86,3.67-2.29-.23-2.52-1.38-.46-8-.69-9.17A1.76,1.76,0,0,1,294.05,268.09Z" style="fill:none;stroke:#263238;stroke-miterlimit:10"></path><path d="M280.32,268.62s7.68-3.21,11.93.94" style="fill:none;stroke:#263238;stroke-miterlimit:10"></path><line x1="240.97" y1="244.12" x2="252.29" y2="265.72" style="fill:none;stroke:#263238;stroke-miterlimit:10"></line><line x1="331.91" y1="252.22" x2="320.28" y2="266.44" style="fill:none;stroke:#263238;stroke-miterlimit:10"></line><path d="M240.88,240.66s-4.87-2.14-6,6.24,6.82,17.93,6.82,17.93Z" style="fill:#fff;stroke:#263238;stroke-miterlimit:10"></path><path d="M332.26,247s6.08-2.84,5.11,5.54S330,272,330,272Z" style="fill:none;stroke:#263238;stroke-miterlimit:10"></path><path d="M95.87,304.57l-2.12,37.94-4.49,9.36a46.71,46.71,0,0,0-3.44,31.36c1.09,4.42,2.75,8.06,5.27,8.86l.22.06A11.67,11.67,0,0,0,105.56,385l10.81-28.84s5-5.32,6.66-7.65,5.32-12,5.32-12,5.32-3.66,6.65-7,5.33-25,6-27.62,2-12.64,4.33-16.3,5-10.31-.67-10.65-11,7.32-11.31,8.65S130,299.93,130,299.93l-5.65,17.3L98.07,306.58Z" style="fill:#fff;stroke:#263238;stroke-miterlimit:10"></path><path d="M116.37,356.15s-9.31,3.33-13-1" style="fill:none;stroke:#263238;stroke-linecap:round;stroke-miterlimit:10"></path><path d="M131.93,217.58,107.49,329.06a4,4,0,0,0,2.59,4.64h0a4,4,0,0,0,5.24-2.95l23.93-112.84Z" style="fill:#999;stroke:#263238;stroke-linecap:round;stroke-miterlimit:10"></path><path d="M104.73,294.27s2.33-24.95,3-25.95,15.64,0,15.64,0,9.65,7.32,10.31,10,1,7.32-2.33,8.32S120.7,282,120.7,282l-4.33,3-1.66,12.64Z" style="fill:#fff;stroke:#263238;stroke-linecap:round;stroke-miterlimit:10"></path><path d="M103.73,325.21l6-.33,7,.33s1,3.66,1.34,6,3.32,4.66,5,2.33,5.65-10.65,5.65-10.65l6-11.31s-3.66-15.64-6-18S100.4,286,100.4,286s-4.66,1-4.66,4-1.66,17-1.66,17l1,19.3" style="fill:#fff;stroke:#263238;stroke-linecap:round;stroke-miterlimit:10"></path><polyline points="101.07 297.93 129.35 303.92 131.01 317.23" style="fill:#fff;stroke:#263238;stroke-linecap:round;stroke-miterlimit:10"></polyline><path d="M101.07,309.91s24.28,1.33,24.28,3.33,1,11,1,12" style="fill:#fff;stroke:#263238;stroke-linecap:round;stroke-miterlimit:10"></path><path d="M161.05,200a23.21,23.21,0,1,1-23.21-23.21A23.21,23.21,0,0,1,161.05,200Z" style="fill:#999;stroke:#263238;stroke-linecap:round;stroke-miterlimit:10"></path><circle cx="138.21" cy="206.54" r="23.21" transform="translate(-76.49 331.69) rotate(-86.45)" style="fill:#999;stroke:#263238;stroke-linecap:round;stroke-miterlimit:10"></circle><path d="M157.21,206.54a19,19,0,1,1-19-19A19,19,0,0,1,157.21,206.54Z" style="fill:#999;stroke:#263238;stroke-linecap:round;stroke-miterlimit:10"></path><path d="M386.53,375.23s16.07-2.48,27.15,16.37,3.88,29.27-2.21,35-24.66,6.45-36.58.25-13.85-30.76-10-41.43S386.53,375.23,386.53,375.23Z" style="fill:#fff;stroke:#263238;stroke-miterlimit:10"></path><path d="M409.08,406.6c2.49,7.7-3.85,16.3-8.83,17.66s-13.59-1.58-15.86-2.94-11.54-1.13-11.54-1.13a16.86,16.86,0,0,1,2.49,4.53,8.11,8.11,0,0,1-.46,7c-.9,1.82-5.2.91-8.37-.9s-14.27-3.17-15.18-2.94-3.17-3.17-3.84-5.67-5.21-10.41-5.67-14.26,8.84-9.51,9.51-11.55,2.5-12,2.5-12-.91-2.72-1.59-4.3-1.36-7.48-1.36-7.48a20.44,20.44,0,0,1-7.24-7.47c-3.84-7-1.59-14.26,2.94-16.3s5.43,5,8.6,8.15,6.34,5.43,8.16,8.38S367,372,367,372s9.28-5.43,12.23-4.52,5,4.52,5.43,6.34,2,3.17,2.72,3.17,5.43-1.82,7.47,1.81l2,3.62s5.43,2.72,6.11,5.89a28.94,28.94,0,0,0,1.59,5.21,9.44,9.44,0,0,1,2,2.49" style="fill:#fff;stroke:#263238;stroke-miterlimit:10"></path><path d="M371,373.09s-5,10.87-7.92,14.49-2.72,8.15-1.59,10.19,3.17,15.17,4.76,18.11,5.43,4.53,6.57,4.31" style="fill:none;stroke:#263238;stroke-linecap:round;stroke-miterlimit:10"></path><path d="M385.53,380.11s-7.48,13.81-9.74,15.62-1.81,6.34-.91,8.15,2.72,8.61,2.72,11.1-.68,4.07,2,5.43" style="fill:none;stroke:#263238;stroke-linecap:round;stroke-miterlimit:10"></path><path d="M404.1,402.07l-7.48,5.44s.91,6.11.46,8.6.45,5.43-.91,7-7.47-.45-7.47-.45l-1.13-1.59c-1.14-1.58-.68-10.41-.91-12S385.75,405,386,403s9.74-15.63,9.74-15.63" style="fill:none;stroke:#263238;stroke-linecap:round;stroke-miterlimit:10"></path><path d="M366.28,415.88s-5-2.71-10,0" style="fill:none;stroke:#263238;stroke-linecap:round;stroke-miterlimit:10"></path><path d="M355.86,407.51s3.17.9,5.66,6.56" style="fill:none;stroke:#263238;stroke-linecap:round;stroke-miterlimit:10"></path><path d="M350.88,372.63s5.21,2.72,8.61-.9" style="fill:none;stroke:#263238;stroke-linecap:round;stroke-miterlimit:10"></path><path d="M355.41,384.18s3.17,3.17,7.93,0" style="fill:none;stroke:#263238;stroke-linecap:round;stroke-miterlimit:10"></path></g><g id="freepik--judge-gavel--inject-42"><polygon points="210.84 428.82 140.91 428.82 137.87 438.34 213.88 438.34 210.84 428.82" style="fill:#999;stroke:#263238;stroke-linecap:round;stroke-miterlimit:10"></polygon><polygon points="213.24 432.46 138.51 432.46 135.26 441.98 216.48 441.98 213.24 432.46" style="fill:#999;stroke:#263238;stroke-linecap:round;stroke-miterlimit:10"></polygon></g><g id="freepik--Table--inject-42"><line x1="9.34" y1="441.98" x2="489.18" y2="441.98" style="fill:none;stroke:#263238;stroke-linecap:round;stroke-miterlimit:10"></line><line x1="9.34" y1="469.46" x2="489.18" y2="469.46" style="fill:none;stroke:#263238;stroke-linecap:round;stroke-miterlimit:10"></line></g></svg>
